<svg width="30" height="30" viewBox="0 0 30 30" fill="none" xmlns="http://www.w3.org/2000/svg">
<path fill-rule="evenodd" clip-rule="evenodd" d="M8.59783 0.0614005C8.14399 0.25857 8.00445 0.550924 8.00445 1.30449V1.85749L5.80273 1.85849C3.28446 1.85966 3.04598 1.88756 2.19965 2.27956C1.16387 2.75929 0.344702 3.75252 0.103481 4.82113C-0.0344937 5.43239 -0.0344937 26.4162 0.103481 27.0274C0.418593 28.4232 1.68029 29.6072 3.16778 29.9029C3.81918 30.0324 26.1808 30.0324 26.8322 29.9029C28.3197 29.6072 29.5814 28.4232 29.8965 27.0274C30.0345 26.4162 30.0345 5.43239 29.8965 4.82113C29.6553 3.75252 28.8361 2.75929 27.8004 2.27956C26.9543 1.88768 26.715 1.85966 24.2028 1.85849L22.0066 1.85749L21.9854 1.21687C21.9626 0.524608 21.9083 0.394138 21.5343 0.132086C21.2924 -0.03736 20.6999 -0.03736 20.4581 0.132086C20.084 0.394138 20.0297 0.524608 20.0069 1.21687L19.9858 1.85749H15H10.0142L9.99306 1.21687C9.97039 0.528183 9.91524 0.393611 9.55116 0.138533C9.34416 -0.00647167 8.84673 -0.0467378 8.59783 0.0614005ZM8.01457 4.37369C8.03737 5.06595 8.09165 5.19642 8.46572 5.45847C8.70757 5.62792 9.30007 5.62792 9.54191 5.45847C9.91599 5.19642 9.97026 5.06595 9.99306 4.37369L10.0142 3.73306H15H19.9858L20.0069 4.37369C20.0246 4.90981 20.049 5.04075 20.1568 5.17596C20.3604 5.43151 20.5853 5.56063 20.8816 5.59193C21.2442 5.63032 21.5577 5.50249 21.7843 5.22403C21.9529 5.01672 21.9656 4.96262 21.9856 4.36519L22.0067 3.72761L24.2341 3.74496L26.4615 3.76237L26.8104 3.91593C27.2539 4.11111 27.5889 4.42544 27.7969 4.84164C27.9533 5.15451 27.9614 5.22033 27.9808 6.32663L28.0011 7.4842H15.0047H2.00827V6.43986C2.00827 5.27947 2.06461 4.99386 2.38216 4.54395C2.60614 4.22663 2.95367 3.98732 3.40113 3.8422C3.68851 3.74901 3.97189 3.7367 5.85969 3.735L7.9934 3.73306L8.01457 4.37369ZM27.9769 18.0196L27.9605 26.6795L27.7969 27.0069C27.5889 27.4231 27.2539 27.7374 26.8104 27.9326L26.4615 28.0862H15H3.53854L3.18964 27.9326C2.74611 27.7374 2.41114 27.4231 2.20314 27.0069L2.0395 26.6795L2.02307 18.0196L2.00664 9.35977H15H27.9934L27.9769 18.0196ZM5.39986 13.218C4.94952 13.3669 4.60393 13.6058 4.37982 13.9233C4.04047 14.4041 3.99582 14.6675 4.01818 16.0562C4.03754 17.2579 4.04397 17.3131 4.20187 17.629C4.40986 18.0452 4.74484 18.3596 5.18837 18.5548C5.53377 18.7068 5.55195 18.7083 7.00509 18.7083C8.45823 18.7083 8.4764 18.7068 8.82181 18.5548C9.26534 18.3596 9.60031 18.0452 9.8083 17.629C9.97033 17.3049 9.97195 17.2879 9.97195 15.9243C9.97195 14.5607 9.97033 14.5436 9.8083 14.2195C9.60031 13.8033 9.26534 13.489 8.82181 13.2938C8.48258 13.1445 8.43468 13.1398 7.09878 13.1255C5.90023 13.1126 5.68318 13.1243 5.39986 13.218ZM13.3948 13.218C12.9444 13.3669 12.5988 13.6058 12.3747 13.9233C12.0354 14.4041 11.9907 14.6675 12.0131 16.0562C12.0325 17.2579 12.0389 17.3131 12.1968 17.629C12.4048 18.0452 12.7398 18.3596 13.1833 18.5548C13.5287 18.7068 13.5469 18.7083 15 18.7083C16.4531 18.7083 16.4713 18.7068 16.8167 18.5548C17.2602 18.3596 17.5952 18.0452 17.8032 17.629C17.9652 17.3049 17.9669 17.2879 17.9669 15.9243C17.9669 14.5607 17.9652 14.5436 17.8032 14.2195C17.5952 13.8033 17.2602 13.489 16.8167 13.2938C16.4775 13.1445 16.4296 13.1398 15.0937 13.1255C13.8951 13.1126 13.6781 13.1243 13.3948 13.218ZM21.3897 13.218C20.9393 13.3669 20.5938 13.6058 20.3696 13.9233C20.0303 14.4041 19.9856 14.6675 20.008 16.0562C20.0274 17.2579 20.0338 17.3131 20.1917 17.629C20.3997 18.0452 20.7347 18.3596 21.1782 18.5548C21.5236 18.7068 21.5418 18.7083 22.9949 18.7083C24.448 18.7083 24.4662 18.7068 24.8116 18.5548C25.2552 18.3596 25.5901 18.0452 25.7981 17.629C25.9601 17.3049 25.9618 17.2879 25.9618 15.9243C25.9618 14.5607 25.9601 14.5436 25.7981 14.2195C25.5901 13.8033 25.2552 13.489 24.8116 13.2938C24.4724 13.1445 24.4245 13.1398 23.0886 13.1255C21.8901 13.1126 21.673 13.1243 21.3897 13.218ZM8.00445 15.9243V16.8621H7.00509H6.00572V15.9243V14.9865H7.00509H8.00445V15.9243ZM15.9994 15.9243V16.8621H15H14.0006V15.9243V14.9865H15H15.9994V15.9243ZM23.9943 15.9243V16.8621H22.9949H21.9955V15.9243V14.9865H22.9949H23.9943V15.9243ZM5.39986 20.7203C4.94952 20.8692 4.60393 21.1081 4.37982 21.4256C4.04047 21.9063 3.99582 22.1698 4.01818 23.5585C4.03754 24.7601 4.04397 24.8154 4.20187 25.1313C4.40986 25.5475 4.74484 25.8619 5.18837 26.057C5.53377 26.2091 5.55195 26.2106 7.00509 26.2106C8.45823 26.2106 8.4764 26.2091 8.82181 26.057C9.26534 25.8619 9.60031 25.5475 9.8083 25.1313C9.97033 24.8072 9.97195 24.7901 9.97195 23.4266C9.97195 22.063 9.97033 22.0459 9.8083 21.7218C9.60031 21.3056 9.26534 20.9912 8.82181 20.7961C8.48258 20.6468 8.43468 20.6421 7.09878 20.6277C5.90023 20.6148 5.68318 20.6266 5.39986 20.7203ZM13.3948 20.7203C12.9444 20.8692 12.5988 21.1081 12.3747 21.4256C12.0354 21.9063 11.9907 22.1698 12.0131 23.5585C12.0325 24.7601 12.0389 24.8154 12.1968 25.1313C12.4048 25.5475 12.7398 25.8619 13.1833 26.057C13.5287 26.2091 13.5469 26.2106 15 26.2106C16.4531 26.2106 16.4713 26.2091 16.8167 26.057C17.2602 25.8619 17.5952 25.5475 17.8032 25.1313C17.9652 24.8072 17.9669 24.7901 17.9669 23.4266C17.9669 22.063 17.9652 22.0459 17.8032 21.7218C17.5952 21.3056 17.2602 20.9912 16.8167 20.7961C16.4775 20.6468 16.4296 20.6421 15.0937 20.6277C13.8951 20.6148 13.6781 20.6266 13.3948 20.7203ZM21.3897 20.7203C20.9393 20.8692 20.5938 21.1081 20.3696 21.4256C20.0303 21.9063 19.9856 22.1698 20.008 23.5585C20.0274 24.7601 20.0338 24.8154 20.1917 25.1313C20.3997 25.5475 20.7347 25.8619 21.1782 26.057C21.5236 26.2091 21.5418 26.2106 22.9949 26.2106C24.448 26.2106 24.4662 26.2091 24.8116 26.057C25.2552 25.8619 25.5901 25.5475 25.7981 25.1313C25.9601 24.8072 25.9618 24.7901 25.9618 23.4266C25.9618 22.063 25.9601 22.0459 25.7981 21.7218C25.5901 21.3056 25.2552 20.9912 24.8116 20.7961C24.4724 20.6468 24.4245 20.6421 23.0886 20.6277C21.8901 20.6148 21.673 20.6266 21.3897 20.7203ZM8.00445 23.4266V24.3643H7.00509H6.00572V23.4266V22.4888H7.00509H8.00445V23.4266ZM15.9994 23.4266V24.3643H15H14.0006V23.4266V22.4888H15H15.9994V23.4266ZM23.9943 23.4266V24.3643H22.9949H21.9955V23.4266V22.4888H22.9949H23.9943V23.4266Z" fill="white"/>
</svg>
