<svg width="30" height="30" viewBox="0 0 30 30" fill="none" xmlns="http://www.w3.org/2000/svg">
<path fill-rule="evenodd" clip-rule="evenodd" d="M13.8859 0.0282303C11.6637 0.241149 10.0109 0.711363 8.13973 1.66299C5.92311 2.79019 3.93404 4.57268 2.48371 6.73146C2.23457 7.10225 1.81041 7.85409 1.54104 8.40222C0.560549 10.3973 0.0890673 12.2748 0.00985179 14.499C-0.0791558 16.9992 0.435071 19.3787 1.54767 21.6154C2.33144 23.191 3.13673 24.3057 4.4132 25.5819C5.70375 26.8722 6.82368 27.6779 8.40359 28.4528C9.50598 28.9935 10.2177 29.2566 11.3353 29.5369C14.2679 30.2723 17.2091 30.1313 20.0742 29.1179C20.9486 28.8087 22.4646 28.0484 23.2382 27.5311C26.5218 25.3356 28.8173 22.0066 29.6575 18.2216C29.8532 17.3397 29.9538 16.5156 29.9902 15.4956C30.0792 12.9954 29.5649 10.6159 28.4523 8.37918C27.7217 6.9105 26.9084 5.75944 25.7665 4.57801C24.5085 3.27647 23.2443 2.35626 21.5964 1.54275C19.8587 0.684807 18.2408 0.22702 16.3193 0.0495104C15.7219 -0.00565377 14.3639 -0.0175542 13.8859 0.0282303ZM17.0815 2.03747C20.7994 2.6621 23.9389 4.71138 26.0132 7.86758C27.0068 9.37928 27.6867 11.17 27.997 13.092C28.1421 13.9914 28.1421 16.0032 27.997 16.9025C27.3651 20.8168 25.2222 24.067 21.8896 26.1657C20.4625 27.0643 18.743 27.6942 16.9056 27.9914C16.0029 28.1374 13.993 28.137 13.0944 27.9906C9.24248 27.3636 6.06981 25.3136 3.96265 22.0907C2.97882 20.5858 2.31467 18.8273 2.00326 16.9025C1.85773 16.0027 1.85773 13.9919 2.00326 13.092C2.47404 10.1822 3.69827 7.76405 5.7309 5.72901C7.94055 3.5167 10.7884 2.18971 13.9446 1.90182C14.5789 1.84396 16.3977 1.92263 17.0815 2.03747ZM14.6189 4.49852C14.5544 4.52724 14.4393 4.6099 14.3632 4.68213C14.0547 4.97495 14.0618 4.85401 14.0618 9.83074V14.458L11.6432 15.8508C10.3129 16.6168 9.13647 17.3084 9.02893 17.3876C8.63707 17.6762 8.50972 18.1054 8.68879 18.534C8.87191 18.9721 9.42366 19.203 9.85591 19.0224C10.1706 18.891 15.4752 15.8229 15.6379 15.6783C15.9462 15.4041 15.9382 15.552 15.9382 10.1902C15.9382 4.74303 15.9537 4.99265 15.5936 4.6541C15.4423 4.51183 15.352 4.47888 15.0734 4.46411C14.8879 4.45432 14.6834 4.46979 14.6189 4.49852Z" fill="white"/>
</svg>
