<svg width="98" height="98" viewBox="0 0 98 98" fill="none" xmlns="http://www.w3.org/2000/svg">
<g clip-path="url(#clip0_2_2)">
<path d="M48.875 0C21.883 0 0 21.882 0 48.875C0 75.868 21.883 97.75 48.875 97.75C75.867 97.75 97.75 75.868 97.75 48.875C97.75 21.882 75.867 0 48.875 0ZM73.667 54.161C75.945 56.386 78.355 58.48 80.4 60.935C81.306 62.021 82.16 63.144 82.81 64.407C83.738 66.208 82.9 68.183 81.288 68.29L71.275 68.288C68.689 68.502 66.631 67.459 64.896 65.691C63.511 64.282 62.226 62.777 60.892 61.32C60.347 60.722 59.773 60.159 59.089 59.716C57.724 58.828 56.538 59.1 55.756 60.526C54.959 61.977 54.777 63.585 54.701 65.2C54.592 67.561 53.88 68.178 51.511 68.289C46.449 68.526 41.646 67.758 37.182 65.206C33.244 62.955 30.196 59.778 27.54 56.181C22.368 49.169 18.407 41.473 14.848 33.556C14.047 31.773 14.633 30.819 16.6 30.782C19.868 30.719 23.136 30.727 26.404 30.779C27.734 30.8 28.614 31.561 29.125 32.816C30.891 37.161 33.056 41.295 35.769 45.129C36.492 46.15 37.23 47.168 38.281 47.889C39.441 48.685 40.325 48.422 40.872 47.127C41.222 46.304 41.373 45.424 41.449 44.542C41.709 41.521 41.74 38.501 41.29 35.492C41.01 33.609 39.951 32.393 38.074 32.037C37.118 31.856 37.258 31.502 37.723 30.956C38.53 30.012 39.286 29.428 40.797 29.428L52.11 29.426C53.893 29.776 54.293 30.576 54.535 32.372L54.545 44.944C54.524 45.639 54.894 47.699 56.142 48.154C57.142 48.484 57.802 47.682 58.4 47.049C61.113 44.17 63.046 40.772 64.777 37.255C65.541 35.704 66.2 34.099 66.84 32.491C67.316 31.302 68.056 30.717 69.398 30.737L80.292 30.75C80.613 30.75 80.939 30.753 81.257 30.808C83.093 31.122 83.596 31.912 83.028 33.703C82.134 36.517 80.397 38.861 78.699 41.211C76.879 43.727 74.938 46.155 73.136 48.682C71.48 50.992 71.611 52.155 73.667 54.161Z" fill="#008DD2"/>
</g>
<defs>
<clipPath id="clip0_2_2">
<rect width="97.75" height="97.75" fill="white"/>
</clipPath>
</defs>
</svg>
